# Blender v2.93.5 OBJ File: 'hand.blend'
# www.blender.org
o Cube
v -1.227589 1.331129 3.909686
v -1.205874 -0.997008 3.969483
v -1.045024 1.023762 -4.012560
v -1.000000 -1.000000 -3.979513
v 1.138448 1.355778 4.027065
v 1.181293 -1.002635 3.988345
v 1.000000 1.000000 -3.979513
v 1.000000 -1.000000 -3.979513
vt 0.875000 0.500000
vt 0.625000 0.750000
vt 0.625000 0.500000
vt 0.375000 0.750000
vt 0.625000 1.000000
vt 0.375000 1.000000
vt 0.625000 0.000000
vt 0.375000 0.250000
vt 0.375000 0.000000
vt 0.125000 0.500000
vt 0.125000 0.750000
vt 0.375000 0.500000
vt 0.625000 0.250000
vt 0.875000 0.750000
vn -0.0085 0.9992 -0.0390
vn 0.0000 0.0000 -1.0000
vn 0.9997 0.0000 -0.0227
vn 0.0000 -1.0000 -0.0003
vn -0.9994 -0.0227 -0.0259
vn -0.0079 -0.0166 0.9998
vn 0.0123 0.9989 -0.0446
vn 0.0160 -0.0160 -0.9997
vn 0.9997 0.0185 -0.0181
vn -0.0024 -1.0000 0.0003
vn -0.9997 -0.0099 -0.0227
vn -0.0498 0.0252 0.9984
s off
f 5/1/1 3/2/1 1/3/1
f 4/4/2 7/5/2 8/6/2
f 7/7/3 6/8/3 8/9/3
f 6/10/4 4/4/4 8/11/4
f 2/12/5 3/2/5 4/4/5
f 5/13/6 2/12/6 6/8/6
f 5/1/7 7/14/7 3/2/7
f 4/4/8 3/2/8 7/5/8
f 7/7/9 5/13/9 6/8/9
f 6/10/10 2/12/10 4/4/10
f 2/12/11 1/3/11 3/2/11
f 5/13/12 1/3/12 2/12/12
